<svg xmlns="http://www.w3.org/2000/svg" version="1.1" xmlns:xlink="http://www.w3.org/1999/xlink" xmlns:svgjs="http://svgjs.dev/svgjs" width="1000" height="623" viewBox="0 0 1000 623"><g transform="matrix(1,0,0,1,-0.606036805496899,0.2900607287449475)"><svg viewBox="0 0 396 247" data-background-color="#ffffff" preserveAspectRatio="xMidYMid meet" height="623" width="1000" xmlns="http://www.w3.org/2000/svg" xmlns:xlink="http://www.w3.org/1999/xlink"><g id="tight-bounds" transform="matrix(1,0,0,1,0.23999059952109292,-0.09999999999999432)"><svg viewBox="0 0 395.52 247.2" height="247.2" width="395.52"><g><svg></svg></g><g><svg viewBox="0 0 395.52 247.2" height="247.2" width="395.52"><g><g><path xmlns="http://www.w3.org/2000/svg" d="M266.571 221.132v26.083h-137.622l0-64.031 28.683 0v37.948zM128.949-0.015h28.683l0 64.031-28.683 0z" fill="#6230a3" fill-rule="nonzero" stroke="none" stroke-width="1" stroke-linecap="butt" stroke-linejoin="miter" stroke-miterlimit="10" stroke-dasharray="" stroke-dashoffset="0" font-family="none" font-weight="none" font-size="none" text-anchor="none" style="mix-blend-mode: normal" data-fill-palette-color="tertiary"></path></g></g><g transform="matrix(1,0,0,1,0,77.47677438351121)"><svg viewBox="0 0 395.52 92.24645123297755" height="92.24645123297755" width="395.52"><g><svg viewBox="0 0 395.52 92.24645123297755" height="92.24645123297755" width="395.52"><g><svg viewBox="0 0 395.52 92.24645123297755" height="92.24645123297755" width="395.52"><g><svg viewBox="0 0 395.52 92.24645123297755" height="92.24645123297755" width="395.52"><g id="textblocktransform"><svg viewBox="0 0 395.52 92.24645123297755" height="92.24645123297755" width="395.52" id="textblock"><g><svg viewBox="0 0 395.52 92.24645123297755" height="92.24645123297755" width="395.52"><g transform="matrix(1,0,0,1,0,0)"><svg width="395.52" viewBox="3.990000009536743 -35.38999938964844 153.67999267578125 35.85068893432617" height="92.24645123297755" data-palette-color="#6230a3"><path d="M3.99-35.39L7.79-35.39 7.79 0 3.99 0 3.99-35.39ZM19.51-9.33L19.51 0 15.77 0 15.77-35.39 19.51-35.39 19.51-16.63Q19.51-15.22 19.34-12.77L19.34-12.77 19.51-12.77Q20.55-14.23 22.49-16.41L22.49-16.41 30.53-24.92 35.03-24.92 24.92-14.31 35.74 0 31.17 0 22.34-11.78 19.51-9.33ZM40.96-21.99Q44.03-25.38 49.34-25.38 54.65-25.38 57.73-21.9 60.81-18.43 60.81-12.42 60.81-6.42 57.73-2.96L57.73-2.96Q54.65 0.46 49.26 0.46L49.26 0.46Q44.18 0.51 41-3.06 37.81-6.62 37.89-12.49L37.89-12.49Q37.89-18.6 40.96-21.99ZM49.29-22.17L49.29-22.17Q41.8-22.17 41.8-12.49L41.8-12.49Q41.8-7.71 43.71-5.21 45.62-2.7 49.34-2.7 53.05-2.7 54.97-5.19 56.9-7.68 56.9-12.47 56.9-17.26 54.97-19.72 53.05-22.17 49.29-22.17ZM83.51-6.8L83.51-6.8Q83.51-3.31 80.92-1.43 78.33 0.46 73.5 0.46 68.67 0.46 65.89-1.11L65.89-1.11 65.89-4.63Q69.79-2.65 73.73-2.65L73.73-2.65Q79.87-2.65 79.87-6.47L79.87-6.47Q79.87-7.94 78.58-8.99 77.29-10.04 73.78-11.36 70.27-12.69 68.72-13.68L68.72-13.68Q65.82-15.65 65.82-18.76 65.82-21.87 68.29-23.62 70.77-25.38 74.98-25.38 79.19-25.38 82.98-23.76L82.98-23.76 81.64-20.68Q77.92-22.22 75.06-22.22 72.19-22.22 70.81-21.4 69.43-20.58 69.43-19.06L69.43-19.06Q69.43-18.1 69.92-17.38 70.42-16.66 71.55-16.01 72.69-15.37 75.95-14.18L75.95-14.18Q80.4-12.54 81.96-10.91 83.51-9.28 83.51-6.8ZM99.61 0.46L99.61 0.46Q94.18 0.46 91.19-2.88L91.19-2.88Q88.24-6.22 88.24-12.37 88.24-18.53 91.24-21.97L91.24-21.97Q94.28-25.38 99.84-25.38L99.84-25.38Q101.66-25.38 103.45-25 105.25-24.62 106.26-24.09L106.26-24.09 105.1-20.88Q102.29-22.04 99.76-22.04L99.76-22.04Q92.15-22.04 92.15-12.36L92.15-12.36Q92.15-7.74 94.02-5.28 95.89-2.83 99.51-2.83L99.51-2.83Q102.59-2.83 105.91-4.2L105.91-4.2 105.91-0.83Q103.4 0.46 99.61 0.46ZM113.89-6.85L113.89-6.85Q113.89-4.83 115.13-3.74 116.37-2.65 118.59-2.65L118.59-2.65Q122.16-2.65 124.15-4.59 126.15-6.52 126.15-10.01L126.15-10.01 126.15-12.26 122.38-12.11Q117.88-11.93 115.89-10.69 113.89-9.45 113.89-6.85ZM129.94-17.01L129.94 0 127.14 0 126.38-3.54 126.2-3.54Q124.33-1.21 122.48-0.38 120.64 0.46 117.86 0.46L117.86 0.46Q114.12 0.46 112.03-1.47 109.95-3.39 109.95-6.9L109.95-6.9Q109.95-14.43 122-14.81L122-14.81 126.25-14.94 126.25-16.48Q126.25-19.46 124.99-20.84 123.72-22.22 120.78-22.22 117.83-22.22 113.89-20.32L113.89-20.32 112.73-23.21Q116.67-25.35 121.17-25.35 125.67-25.35 127.81-23.36 129.94-21.36 129.94-17.01L129.94-17.01ZM141.44-9.33L141.44 0 137.7 0 137.7-35.39 141.44-35.39 141.44-16.63Q141.44-15.22 141.26-12.77L141.26-12.77 141.44-12.77Q142.48-14.23 144.42-16.41L144.42-16.41 152.46-24.92 156.96-24.92 146.85-14.31 157.67 0 153.09 0 144.27-11.78 141.44-9.33Z" opacity="1" transform="matrix(1,0,0,1,0,0)" fill="#6230a3" class="undefined-text-0" data-fill-palette-color="primary" id="text-0"></path></svg></g></svg></g></svg></g></svg></g><g></g></svg></g></svg></g></svg></g></svg></g><defs></defs></svg><rect width="395.52" height="247.2" fill="none" stroke="none" visibility="hidden"></rect></g></svg></g></svg>